<svg xmlns="http://www.w3.org/2000/svg" xmlns:xlink="http://www.w3.org/1999/xlink" version="1.1" x="0px" y="0px" viewBox="0 0 100 125" enable-background="new 0 0 100 100" xml:space="preserve"><g><path d="M19.128,68.831c0.01,0.133,0.072,0.256,0.174,0.343l8.913,7.644c0.094,0.081,0.21,0.121,0.325,0.121   c0.135,0,0.269-0.054,0.366-0.16l24.541-26.459c0.179-0.192,0.179-0.489,0-0.68L28.885,23.222   c-0.184-0.198-0.491-0.214-0.692-0.038l-8.892,7.669c-0.102,0.087-0.163,0.21-0.173,0.343c-0.009,0.133,0.035,0.264,0.123,0.364   l16.097,18.404L19.25,68.466C19.162,68.566,19.118,68.698,19.128,68.831z"/><path d="M55.799,76.938c0.135,0,0.269-0.054,0.366-0.16l24.541-26.459c0.179-0.192,0.179-0.489,0-0.68L56.144,23.222   c-0.184-0.198-0.49-0.214-0.692-0.038l-8.892,7.669c-0.102,0.087-0.163,0.21-0.173,0.343c-0.009,0.133,0.035,0.264,0.123,0.364   l16.097,18.404L46.509,68.466c-0.088,0.101-0.132,0.232-0.122,0.365s0.072,0.256,0.174,0.343l8.913,7.644   C55.567,76.898,55.684,76.938,55.799,76.938z"/></g></svg>