<svg xmlns="http://www.w3.org/2000/svg" xmlns:xlink="http://www.w3.org/1999/xlink" version="1.1" x="0px" y="0px" viewBox="0 0 100 125" enable-background="new 0 0 100 100" xml:space="preserve"><path d="M72.226,10.088c-2.575,0-5.233,0.394-7.9,1.168c-6.535,1.899-11.916,7.092-14.414,9.848  c-2.503-2.409-7.867-6.842-15.975-9.806c-1.996-0.729-4.114-1.099-6.295-1.099c-10.626,0-21.617,8.896-21.617,23.786  c0,14.615,15.266,28.62,26.413,38.847l1.796,1.65c9.552,8.803,14.149,14.607,14.194,14.665c0.378,0.481,0.956,0.763,1.568,0.764  c0.001,0,0.002,0,0.004,0c0.61,0,1.188-0.278,1.567-0.757c0.045-0.058,4.672-5.853,14.217-14.643l1.71-1.571  C78.67,62.689,93.976,48.65,93.976,33.985C93.976,19.691,85.235,10.088,72.226,10.088z M64.791,69.992l-1.717,1.577  c-6.669,6.143-10.952,10.804-13.069,13.233c-2.111-2.436-6.384-7.108-13.061-13.262l-1.803-1.657  c-10.6-9.724-25.117-23.042-25.117-35.898c0-12.386,8.958-19.786,17.617-19.786c1.711,0,3.367,0.288,4.922,0.856  c10.312,3.769,15.849,10.248,15.901,10.311c0.388,0.465,0.944,0.729,1.573,0.717c0.606-0.012,1.175-0.298,1.545-0.777  c0.062-0.079,6.251-7.997,13.858-10.208c2.305-0.67,4.587-1.01,6.784-1.01c10.783,0,17.75,7.811,17.75,19.897  C89.976,46.892,75.419,60.243,64.791,69.992z"/></svg>